# xmcd CD database file
#
# Track frame offsets:
#	150
#	11128
#	24198
#	38275
#	52870
#	67565
#	79652
#	95378
#	110104
#	125023
#	144775
#
# Disc length: 2113 seconds
#
# Revision: 0
# Processed by: cddbd v1.5.1PL2 Copyright (c) Steve Scherf et al.
# Submitted via: CDex 1.51
#
DISCID=77083f0b
DTITLE=Dennis Marsh - Xmas In N.Z.
DYEAR=2001
DGENRE=Country
TTITLE0=Rudolph The Red Noise Reindeer
TTITLE1=If Everyday Was Like Xmas
TTITLE2=Jingle Bells
TTITLE3=Blue Xmas
TTITLE4=Mary's Boy Child
TTITLE5=Santa Looks Alot Like Daddy
TTITLE6=I Saw Mummy Kissing Santa Claus
TTITLE7=Pretty Paper
TTITLE8=Please Daddy Don't Get Drunk This Xmas
TTITLE9=Medley - Away In The Manger, Silent Night, Silver Bells
TTITLE10=Chrismas In New Zealand
EXTD=YEAR: 2001
EXTT0=
EXTT1=
EXTT2=
EXTT3=
EXTT4=
EXTT5=
EXTT6=
EXTT7=
EXTT8=
EXTT9=
EXTT10=
PLAYORDER=
